<?xml version="1.0" standalone="no"?>
<!DOCTYPE svg PUBLIC "-//W3C//DTD SVG 20010904//EN"
 "http://www.w3.org/TR/2001/REC-SVG-20010904/DTD/svg10.dtd">
<svg version="1.0" xmlns="http://www.w3.org/2000/svg"
 width="720.000000pt" height="720.000000pt" viewBox="0 0 720.000000 720.000000"
 preserveAspectRatio="xMidYMid meet">
<metadata>
Created by potrace 1.14, written by Peter Selinger 2001-2017
</metadata>
<g transform="translate(0.000000,720.000000) scale(0.100000,-0.100000)"
fill="#000000" stroke="none">
<path d="M2928 7085 c-3 -3 -18 -8 -34 -11 -16 -3 -37 -7 -46 -10 -10 -3 -30
-7 -45 -10 -133 -23 -428 -120 -628 -206 -263 -113 -334 -153 -429 -246 -113
-110 -158 -210 -162 -357 -3 -127 23 -213 102 -344 30 -51 54 -94 52 -95 -2
-1 -23 -11 -48 -21 -156 -65 -434 -225 -569 -327 -35 -26 -67 -45 -72 -42 -19
11 -69 147 -84 229 -8 43 -8 132 0 190 13 94 64 202 138 295 11 14 -26 -22
-83 -80 -56 -58 -147 -161 -202 -230 -55 -69 -109 -136 -120 -148 -73 -88
-214 -324 -245 -412 -42 -121 -41 -282 3 -422 16 -49 15 -54 -29 -122 -44 -70
-77 -126 -77 -131 0 -4 -9 -19 -19 -33 -10 -15 -19 -29 -19 -32 0 -3 -18 -43
-40 -90 -80 -171 -146 -372 -178 -540 -3 -14 -9 -43 -14 -65 -5 -22 -12 -65
-15 -95 -4 -30 -10 -84 -14 -120 -20 -155 5 -661 33 -709 2 -3 7 -27 10 -52
11 -81 78 -321 110 -394 8 -16 19 -48 26 -70 37 -117 121 -308 198 -447 18
-32 46 -84 63 -115 71 -131 184 -291 329 -468 117 -143 113 -133 -24 73 -149
224 -218 343 -289 502 -74 166 -145 390 -171 535 -3 17 -8 41 -11 55 -3 14 -8
45 -11 70 -3 25 -8 56 -11 70 -9 44 -12 433 -3 495 5 33 11 80 14 105 44 336
199 707 417 1000 l49 65 92 -89 c78 -76 257 -224 364 -302 l28 -20 -75 -85
c-101 -114 -157 -188 -221 -294 -224 -370 -314 -811 -252 -1228 3 -20 7 -47 9
-60 8 -59 18 -106 31 -153 8 -28 16 -60 18 -70 6 -30 61 -182 91 -254 62 -146
201 -384 297 -504 143 -182 315 -349 509 -496 226 -170 473 -303 752 -404 109
-40 324 -100 395 -112 15 -2 38 -7 52 -10 52 -12 186 -31 295 -41 155 -14 466
-7 593 13 15 2 41 6 57 9 17 2 48 7 70 11 124 18 333 78 487 140 707 284 1172
851 1273 1554 14 95 14 426 0 500 -3 19 -11 62 -17 95 -16 92 -16 94 -42 188
l-24 87 21 1 c12 0 29 2 37 3 8 2 40 6 70 9 63 7 134 17 170 23 134 22 221 38
284 53 86 21 79 25 91 -62 4 -27 8 -58 10 -69 7 -32 18 -216 18 -293 0 -67
-11 -248 -19 -290 -1 -11 -5 -38 -9 -60 -5 -39 -8 -55 -21 -120 -31 -159 -104
-365 -190 -538 -277 -558 -826 -1015 -1469 -1225 -44 -14 -84 -27 -90 -29 -5
-2 -86 -24 -180 -49 -150 -39 -163 -48 -45 -28 66 11 195 43 315 79 66 20 127
37 135 40 138 37 533 216 700 318 111 68 351 238 450 321 369 306 646 699 795
1126 31 89 77 255 91 325 34 173 47 317 47 500 0 110 -3 223 -6 251 l-7 51 53
36 c159 111 273 268 317 438 16 59 19 97 15 189 -2 63 -6 126 -9 140 -2 14 -7
55 -10 92 -3 36 -8 72 -10 80 -3 7 -7 31 -10 53 -11 77 -18 111 -46 230 -29
120 -105 360 -94 297 11 -62 5 -187 -11 -247 -46 -170 -169 -322 -351 -431
l-69 -41 -70 136 c-96 185 -161 288 -338 532 -16 22 -23 39 -16 39 18 0 173
76 238 117 85 55 191 167 227 243 80 166 74 311 -21 505 -100 203 -431 570
-750 829 l-60 49 71 -74 c103 -107 110 -116 154 -188 59 -98 79 -169 76 -271
-3 -106 -27 -160 -109 -242 -85 -84 -197 -145 -368 -198 -68 -20 -258 -58
-261 -51 -3 8 -246 159 -298 185 -285 144 -389 191 -590 263 -144 51 -405 123
-535 147 -86 16 -206 36 -250 41 -27 4 -60 8 -73 10 -115 19 -681 28 -774 13
-21 -3 -36 -3 -35 1 1 4 -16 23 -37 42 -205 179 -304 335 -311 494 -10 198
150 361 440 450 96 30 101 32 93 40 -2 3 -7 3 -10 0z m-450 -1876 c233 -135
585 -288 907 -394 91 -29 320 -96 380 -110 17 -4 38 -9 48 -11 9 -2 25 -6 35
-8 9 -2 35 -9 57 -15 51 -13 326 -68 385 -76 25 -3 72 -10 105 -15 33 -5 80
-12 105 -15 25 -3 61 -7 80 -10 19 -2 73 -7 120 -10 47 -4 105 -8 130 -11 25
-2 123 -4 218 -5 l174 -1 66 -57 c91 -78 239 -229 321 -326 128 -150 282 -368
270 -380 -3 -2 -31 -7 -64 -10 -33 -3 -67 -8 -75 -10 -8 -2 -44 -7 -80 -10
-36 -3 -94 -8 -130 -11 -36 -3 -171 -7 -300 -9 l-235 -4 -60 58 c-56 53 -116
107 -176 157 -62 51 -224 162 -324 222 -298 177 -668 313 -1000 367 -178 28
-285 37 -475 37 -132 0 -317 -9 -330 -17 -3 -1 -32 -6 -65 -10 -33 -3 -100
-15 -150 -26 -49 -11 -99 -22 -110 -24 -11 -3 -42 -11 -69 -19 l-48 -15 -86
46 c-191 100 -439 264 -580 382 -62 52 -70 42 104 129 145 74 253 118 404 168
114 37 307 89 343 91 10 1 58 -21 105 -48z m-280 -1800 c339 -145 856 -321
1097 -374 11 -2 67 -16 125 -30 58 -15 116 -29 130 -31 14 -3 33 -7 42 -10 9
-3 27 -7 40 -9 13 -3 58 -12 101 -21 42 -8 90 -17 105 -20 15 -2 50 -9 77 -14
47 -9 70 -13 140 -24 96 -15 121 -19 135 -21 8 -1 44 -6 80 -10 36 -4 72 -9
80 -10 8 -2 49 -6 90 -10 107 -9 133 -14 147 -28 22 -22 119 -201 150 -277 57
-139 71 -188 108 -395 7 -39 7 -281 0 -320 -3 -16 -7 -43 -10 -60 -32 -192
-104 -368 -219 -535 -50 -71 -74 -99 -177 -202 -160 -158 -363 -280 -594 -357
-66 -22 -131 -42 -145 -44 -14 -3 -43 -9 -65 -15 -184 -48 -520 -49 -763 -2
-615 117 -1148 509 -1393 1024 -140 296 -176 579 -115 906 14 70 77 244 118
323 89 170 230 337 396 466 35 27 209 138 220 140 2 1 47 -18 100 -40z"/>
<path d="M2868 2816 c-1 -2 -30 -6 -63 -9 -189 -19 -403 -117 -533 -245 -105
-104 -166 -206 -206 -345 -44 -153 -37 -319 20 -477 47 -131 99 -213 216 -340
49 -53 159 -140 223 -176 11 -6 36 -20 55 -31 61 -34 182 -81 265 -102 435
-109 877 39 1080 364 141 224 157 499 43 744 -166 358 -555 601 -986 616 -61
2 -112 2 -114 1z m224 -859 c38 -21 68 -68 68 -107 0 -34 -28 -78 -60 -95
-122 -63 -279 84 -195 183 45 53 114 60 187 19z"/>
<path d="M2958 7083 c6 -2 18 -2 25 0 6 3 1 5 -13 5 -14 0 -19 -2 -12 -5z"/>
<path d="M3644 7075 c-206 -32 -345 -104 -400 -207 -29 -53 -25 -150 10 -221
35 -72 145 -184 251 -255 214 -143 594 -284 860 -318 22 -3 46 -7 53 -9 77
-26 560 -26 602 0 3 2 21 6 42 9 20 3 60 15 90 26 214 85 285 218 202 382 -56
111 -234 258 -431 357 -165 82 -411 168 -564 195 -7 1 -27 5 -44 9 -37 8 -74
14 -134 23 -25 3 -57 8 -71 11 -57 11 -389 10 -466 -2z m689 -289 c9 9 115
-37 141 -61 102 -95 -121 -122 -261 -32 -40 26 -51 54 -29 75 18 19 92 31 122
21 12 -4 24 -6 27 -3z"/>
</g>
</svg>
